<svg width="90" height="80" viewBox="0 0 84 74" fill="none" xmlns="http://www.w3.org/2000/svg">
<circle cx="40.9367" cy="36.6835" r="36.6835" fill="#3D5AF1"/>
<path d="M14.9993 42.6723C14.0993 42.6723 13.2833 42.4923 12.5513 42.1323C11.8193 41.7603 11.1893 41.2683 10.6613 40.6563C10.1333 40.0443 9.7253 39.3543 9.4373 38.5863C9.1493 37.8063 9.0053 37.0083 9.0053 36.1923C9.0053 35.3403 9.1553 34.5303 9.4553 33.7623C9.7553 32.9823 10.1753 32.2923 10.7153 31.6923C11.2673 31.0803 11.9093 30.6003 12.6413 30.2523C13.3733 29.8923 14.1653 29.7123 15.0173 29.7123C15.9173 29.7123 16.7333 29.8983 17.4653 30.2703C18.1973 30.6423 18.8213 31.1403 19.3373 31.7643C19.8653 32.3883 20.2733 33.0843 20.5613 33.8523C20.8493 34.6203 20.9933 35.4063 20.9933 36.2103C20.9933 37.0623 20.8433 37.8783 20.5433 38.6583C20.2433 39.4263 19.8233 40.1163 19.2833 40.7283C18.7433 41.3283 18.1073 41.8023 17.3753 42.1503C16.6433 42.4983 15.8513 42.6723 14.9993 42.6723ZM14.9993 41.5383C15.7313 41.5383 16.3853 41.3883 16.9613 41.0883C17.5493 40.7763 18.0473 40.3683 18.4553 39.8643C18.8753 39.3483 19.1933 38.7723 19.4093 38.1363C19.6253 37.5003 19.7333 36.8523 19.7333 36.1923C19.7333 35.4963 19.6193 34.8303 19.3913 34.1943C19.1633 33.5463 18.8333 32.9763 18.4013 32.4843C17.9813 31.9803 17.4833 31.5843 16.9073 31.2963C16.3313 30.9963 15.6953 30.8463 14.9993 30.8463C14.2793 30.8463 13.6253 31.0023 13.0373 31.3143C12.4613 31.6143 11.9633 32.0223 11.5433 32.5383C11.1353 33.0423 10.8173 33.6123 10.5893 34.2483C10.3733 34.8843 10.2653 35.5323 10.2653 36.1923C10.2653 36.8883 10.3793 37.5603 10.6073 38.2083C10.8353 38.8443 11.1593 39.4143 11.5793 39.9183C11.9993 40.4103 12.4973 40.8063 13.0733 41.1063C13.6613 41.3943 14.3033 41.5383 14.9993 41.5383ZM16.1513 38.6583H17.3933L20.7053 42.5823H19.4633L16.1513 38.6583ZM24.2517 38.7123V33.2043H25.4757V38.4963C25.4757 39.5643 25.6557 40.3623 26.0157 40.8903C26.3877 41.4183 26.9337 41.6823 27.6537 41.6823C28.1337 41.6823 28.5957 41.5803 29.0397 41.3763C29.4957 41.1603 29.8977 40.8603 30.2457 40.4763C30.5937 40.0803 30.8577 39.6243 31.0377 39.1083V33.2043H32.2617V41.1063C32.2617 41.2743 32.2977 41.4003 32.3697 41.4843C32.4417 41.5563 32.5497 41.5983 32.6937 41.6103V42.5823C32.5497 42.5943 32.4357 42.6003 32.3517 42.6003C32.2677 42.6123 32.1897 42.6183 32.1177 42.6183C31.8777 42.5943 31.6677 42.4983 31.4877 42.3303C31.3197 42.1623 31.2297 41.9583 31.2177 41.7183L31.1817 40.4583C30.7737 41.1783 30.2157 41.7423 29.5077 42.1503C28.8117 42.5583 28.0557 42.7623 27.2397 42.7623C26.2557 42.7623 25.5117 42.4203 25.0077 41.7363C24.5037 41.0523 24.2517 40.0443 24.2517 38.7123ZM36.2892 42.5823V33.2043H37.5132V42.5823H36.2892ZM36.2892 31.2423V29.4423H37.5132V31.2423H36.2892ZM40.6771 41.7543L46.9591 34.1223H40.8211V33.2043H48.3451V34.0323L42.0991 41.6643H48.3271V42.5823H40.6771V41.7543ZM55.4452 42.7623C54.7732 42.7623 54.1492 42.6363 53.5732 42.3843C52.9972 42.1203 52.4992 41.7663 52.0792 41.3223C51.6592 40.8663 51.3292 40.3443 51.0892 39.7563C50.8612 39.1683 50.7472 38.5383 50.7472 37.8663C50.7472 36.9903 50.9452 36.1863 51.3412 35.4543C51.7492 34.7223 52.3072 34.1403 53.0152 33.7083C53.7232 33.2643 54.5272 33.0423 55.4272 33.0423C56.3512 33.0423 57.1552 33.2643 57.8392 33.7083C58.5352 34.1523 59.0812 34.7403 59.4772 35.4723C59.8732 36.1923 60.0712 36.9843 60.0712 37.8483C60.0712 37.9443 60.0712 38.0403 60.0712 38.1363C60.0712 38.2203 60.0652 38.2863 60.0532 38.3343H52.0252C52.0852 39.0063 52.2712 39.6063 52.5832 40.1343C52.9072 40.6503 53.3212 41.0643 53.8252 41.3763C54.3412 41.6763 54.8992 41.8263 55.4992 41.8263C56.1112 41.8263 56.6872 41.6703 57.2272 41.3583C57.7792 41.0463 58.1632 40.6383 58.3792 40.1343L59.4412 40.4223C59.2492 40.8663 58.9552 41.2683 58.5592 41.6283C58.1632 41.9883 57.6952 42.2703 57.1552 42.4743C56.6272 42.6663 56.0572 42.7623 55.4452 42.7623ZM51.9892 37.4523H58.9192C58.8712 36.7683 58.6852 36.1683 58.3612 35.6523C58.0492 35.1363 57.6352 34.7343 57.1192 34.4463C56.6152 34.1463 56.0572 33.9963 55.4452 33.9963C54.8332 33.9963 54.2752 34.1463 53.7712 34.4463C53.2672 34.7343 52.8532 35.1423 52.5292 35.6703C52.2172 36.1863 52.0372 36.7803 51.9892 37.4523ZM67.8996 34.2843C67.0836 34.3083 66.3636 34.5363 65.7396 34.9683C65.1276 35.4003 64.6956 35.9943 64.4436 36.7503V42.5823H63.2196V33.2043H64.3716V35.4543C64.6956 34.7943 65.1216 34.2603 65.6496 33.8523C66.1896 33.4443 66.7596 33.2163 67.3596 33.1683C67.4796 33.1563 67.5816 33.1503 67.6656 33.1503C67.7616 33.1503 67.8396 33.1563 67.8996 33.1683V34.2843ZM75.4702 34.2843C74.6542 34.3083 73.9342 34.5363 73.3102 34.9683C72.6982 35.4003 72.2662 35.9943 72.0142 36.7503V42.5823H70.7902V33.2043H71.9422V35.4543C72.2662 34.7943 72.6922 34.2603 73.2202 33.8523C73.7602 33.4443 74.3302 33.2163 74.9302 33.1683C75.0502 33.1563 75.1522 33.1503 75.2362 33.1503C75.3322 33.1503 75.4102 33.1563 75.4702 33.1683V34.2843Z" fill="#E2F3F5"/>
</svg>
